<svg width="230" height="230" viewBox="0 0 230 230" fill="none" xmlns="http://www.w3.org/2000/svg">
<g id="Drink Water" clip-path="url(#clip0_13_757)">
<path id="Vector" d="M115 230C51.5889 230 0 178.411 0 115C0 51.5889 51.5889 0 115 0C176.539 0 226.893 47.9965 229.857 109.36C229.869 109.442 229.879 109.526 229.888 109.609C229.935 110.076 229.934 110.475 229.916 110.811C229.974 112.332 230.001 113.706 230.001 115C230.001 178.411 178.412 230 115 230Z" fill="white"/>
<path id="Vector_2" d="M115.399 223.91C175.328 223.91 223.91 175.328 223.91 115.399C223.91 55.4707 175.328 6.88892 115.399 6.88892C55.4704 6.88892 6.88867 55.4707 6.88867 115.399C6.88867 175.328 55.4704 223.91 115.399 223.91Z" fill="#FFB80E"/>
<path id="Vector_3" d="M108.398 125.882C109.463 126.947 110.124 128.421 110.124 130.05C110.124 132.745 108.316 135.019 105.849 135.72H66.6186C65.6415 135.443 64.7666 134.92 64.0691 134.219C63.0022 133.154 62.3438 131.68 62.3438 130.05C62.3438 126.794 64.9807 124.155 68.2348 124.155C66.6063 124.155 65.1336 123.496 64.0691 122.428C63.0022 121.363 62.3438 119.889 62.3438 118.259C62.3438 115.107 64.8178 112.529 67.931 112.371H104.537C107.647 112.529 110.124 115.107 110.124 118.259C110.124 121.516 107.485 124.155 104.233 124.155C105.859 124.155 107.332 124.814 108.398 125.882Z" fill="white"/>
<path id="Vector_4" d="M156.112 99.8622C169.305 99.8622 180 89.1479 180 75.9311C180 62.7143 169.305 52 156.112 52C142.918 52 132.223 62.7143 132.223 75.9311C132.223 89.1479 142.918 99.8622 156.112 99.8622Z" fill="white"/>
<path id="Vector_5" d="M112.467 118.26C112.467 115.802 111.386 113.592 109.674 112.082V97.6285C109.674 91.9318 105.551 86.8772 99.4125 85.0505C98.1122 84.6636 97.2384 83.5048 97.2384 82.1672V81.053H98.628C99.9225 81.053 100.972 80.0037 100.972 78.7093V68.3389C100.972 67.0444 99.9225 65.9951 98.628 65.9951H73.8387C72.5442 65.9951 71.4949 67.0444 71.4949 68.3389V78.7095C71.4949 80.0039 72.5442 81.0532 73.8387 81.0532H75.2283V82.1675C75.2283 83.505 74.3545 84.6636 73.054 85.0507C66.9162 86.8772 62.7921 91.932 62.7921 97.6287V112.082C61.0812 113.592 60 115.802 60 118.26C60 120.568 60.9537 122.658 62.4874 124.155C60.9537 125.652 60 127.742 60 130.05C60 132.508 61.0812 134.718 62.7923 136.228V157.944C62.7923 163.045 66.9394 167.194 72.0368 167.194H100.43C105.528 167.194 109.674 163.045 109.674 157.944V136.228C111.386 134.718 112.467 132.508 112.467 130.05C112.467 127.742 111.513 125.652 109.979 124.155C111.513 122.658 112.467 120.568 112.467 118.26ZM76.1824 70.6826H96.2843V76.3657H76.1824V70.6826ZM104.232 126.499C106.188 126.499 107.779 128.092 107.779 130.05C107.779 132.008 106.188 133.602 104.232 133.602C102.938 133.602 101.888 134.651 101.888 135.945C101.888 137.24 102.938 138.289 104.232 138.289H104.987V157.944C104.987 160.46 102.943 162.506 100.43 162.506H72.0366C69.5238 162.506 67.4796 160.46 67.4796 157.944V138.289H68.2343C69.5287 138.289 70.578 137.24 70.578 135.945C70.578 134.651 69.5287 133.602 68.2343 133.602C66.2784 133.602 64.6875 132.008 64.6875 130.05C64.6875 128.092 66.2787 126.499 68.2343 126.499C69.5287 126.499 70.578 125.449 70.578 124.155C70.578 122.861 69.5287 121.811 68.2343 121.811C66.2784 121.811 64.6875 120.218 64.6875 118.26C64.6875 116.301 66.2787 114.708 68.2343 114.708C69.5287 114.708 70.578 113.659 70.578 112.365C70.578 111.07 69.5287 110.021 68.2343 110.021H67.4796V97.6282C67.4796 94.0226 70.2572 90.7732 74.3909 89.543C77.6953 88.5596 79.9155 85.5954 79.9155 82.167V81.0528H92.5507V82.167C92.5507 85.5954 94.7709 88.5596 98.0752 89.543C102.209 90.7732 104.987 94.0224 104.987 97.6282V110.021H104.232C102.938 110.021 101.888 111.07 101.888 112.365C101.888 113.659 102.938 114.708 104.232 114.708C106.188 114.708 107.779 116.301 107.779 118.26C107.779 120.218 106.188 121.811 104.232 121.811C102.938 121.811 101.888 122.861 101.888 124.155C101.888 125.449 102.938 126.499 104.232 126.499Z" fill="#00000C"/>
<path id="Vector_6" d="M164.183 107.999C163.739 107.512 163.11 107.234 162.45 107.234H118.687C118.028 107.234 117.399 107.512 116.955 107.999C116.511 108.487 116.293 109.139 116.354 109.796L121.497 164.926C121.61 166.131 122.621 167.052 123.831 167.052H157.307C158.517 167.052 159.528 166.131 159.641 164.926L164.784 109.796C164.845 109.139 164.627 108.487 164.183 107.999ZM155.172 162.365H125.966L121.26 111.922H159.878L155.172 162.365Z" fill="#00000C"/>
<path id="Vector_7" d="M152.977 81.0472C153.416 81.4871 154.013 81.7337 154.634 81.7337C154.646 81.7337 154.657 81.7337 154.669 81.7334C155.302 81.7238 155.905 81.4583 156.34 80.9968L162.637 74.311C163.524 73.3686 163.48 71.8855 162.537 70.9979C161.595 70.1103 160.111 70.1551 159.224 71.0973L154.583 76.0248L152.948 74.3898C152.034 73.4748 150.549 73.4745 149.634 74.3895C148.718 75.3048 148.718 76.7888 149.634 77.7043L152.977 81.0472Z" fill="#00000C"/>
</g>
<defs>
<clipPath id="clip0_13_757">
<rect width="230" height="230" fill="white"/>
</clipPath>
</defs>
</svg>
