<svg width="230" height="230" viewBox="0 0 230 230" fill="none" xmlns="http://www.w3.org/2000/svg">
<g id="meal" clip-path="url(#clip0_13_904)">
<path id="Vector" d="M115 230C51.5889 230 0 178.411 0 115C0 51.5889 51.5889 0 115 0C176.539 0 226.893 47.9965 229.857 109.36C229.869 109.442 229.879 109.526 229.888 109.609C229.935 110.076 229.934 110.475 229.916 110.811C229.974 112.332 230.001 113.706 230.001 115C230.001 178.411 178.412 230 115 230Z" fill="white"/>
<path id="Vector_2" d="M115.399 223.91C175.328 223.91 223.91 175.328 223.91 115.399C223.91 55.4707 175.328 6.88892 115.399 6.88892C55.4704 6.88892 6.88867 55.4707 6.88867 115.399C6.88867 175.328 55.4704 223.91 115.399 223.91Z" fill="#FFB80E"/>
<path id="Vector_3" d="M130.658 143.23C146.411 143.23 159.181 130.394 159.181 114.559C159.181 98.7243 146.411 85.8877 130.658 85.8877C114.905 85.8877 102.135 98.7243 102.135 114.559C102.135 130.394 114.905 143.23 130.658 143.23Z" fill="white"/>
<path id="Vector_4" d="M130.658 70C120.159 70 110.157 73.6729 102.183 80.4002C99.2698 75.4546 93.9048 72.1309 87.7812 72.1309C86.487 72.1309 85.4375 73.1802 85.4375 74.4747V149.451C85.4375 153.607 88.8062 156.988 92.9469 156.988C97.0876 156.988 100.456 153.607 100.456 149.451V147.188C108.617 154.829 119.343 159.119 130.658 159.119C155.108 159.118 174.999 139.129 174.999 114.559C174.999 89.9891 155.108 70 130.658 70ZM90.1248 77.0488C95.6413 78.149 99.8134 83.0561 99.8134 88.9251V124.061H90.1248V77.0488ZM95.7688 149.451C95.7688 151.022 94.5029 152.3 92.9466 152.3C91.3906 152.3 90.1248 151.022 90.1248 149.451V128.749H95.7688V149.451ZM130.658 154.431C118.987 154.431 108.015 149.324 100.456 140.397V128.749H102.157C103.452 128.749 104.501 127.7 104.501 126.405V88.9251C104.501 87.5755 104.342 86.2626 104.041 85.0042C111.348 78.3428 120.756 74.6873 130.658 74.6873C152.523 74.6875 170.312 92.5738 170.312 114.559C170.312 136.544 152.523 154.431 130.658 154.431Z" fill="#00000C"/>
<path id="Vector_5" d="M138.146 103.711L119.85 122.101C118.937 123.019 118.941 124.503 119.859 125.416C120.316 125.871 120.914 126.098 121.512 126.098C122.113 126.098 122.716 125.868 123.173 125.408L141.469 107.017C142.382 106.099 142.378 104.615 141.461 103.702C140.543 102.789 139.059 102.793 138.146 103.711Z" fill="#00000C"/>
<path id="Vector_6" d="M138.05 122.525C137.195 121.966 136.055 122.012 135.26 122.663C134.515 123.275 134.22 124.316 134.53 125.228C134.849 126.166 135.755 126.819 136.747 126.819C137.712 126.819 138.6 126.204 138.939 125.303C139.322 124.287 138.941 123.136 138.05 122.525Z" fill="#00000C"/>
<path id="Vector_7" d="M122.403 105.54C122.786 106.458 123.73 107.045 124.722 106.982C125.696 106.92 126.545 106.232 126.818 105.298C127.082 104.397 126.763 103.39 126.026 102.808C125.234 102.183 124.108 102.139 123.268 102.695C122.345 103.307 121.985 104.52 122.403 105.54Z" fill="#00000C"/>
<path id="Vector_8" d="M76.5236 72.4207C75.2294 72.4207 74.1798 73.47 74.1798 74.7644V90.0607C74.1798 91.6239 72.9198 92.8959 71.3713 92.8959H69.2774V74.7646C69.2774 73.4702 68.2279 72.4209 66.9337 72.4209C65.6395 72.4209 64.5899 73.4702 64.5899 74.7646V92.8959H62.496C60.9475 92.8959 59.6875 91.6239 59.6875 90.0607V74.7644C59.6875 73.47 58.638 72.4207 57.3438 72.4207C56.0495 72.4207 55 73.47 55 74.7644V90.0607C55 94.2086 58.3628 97.5834 62.496 97.5834H64.5899V111.094H61.768C60.4738 111.094 59.4243 112.143 59.4243 113.438V149.451C59.4243 153.607 62.793 156.988 66.9337 156.988C71.0744 156.988 74.443 153.607 74.443 149.451V113.438C74.443 112.143 73.3935 111.094 72.0993 111.094H69.2774V97.5834H71.3713C75.5048 97.5834 78.8673 94.2089 78.8673 90.0607V74.7644C78.8673 73.4702 77.8178 72.4207 76.5236 72.4207ZM69.7555 149.451C69.7555 151.022 68.4897 152.3 66.9337 152.3C65.3777 152.3 64.1118 151.022 64.1118 149.451V115.782H69.7555V149.451Z" fill="#00000C"/>
</g>
<defs>
<clipPath id="clip0_13_904">
<rect width="230" height="230" fill="white"/>
</clipPath>
</defs>
</svg>
